<?xml version="1.0" encoding="utf-8"?>
<!-- Generator: Adobe Illustrator 26.0.3, SVG Export Plug-In . SVG Version: 6.00 Build 0)  -->
<svg version="1.0" id="katman_1" xmlns="http://www.w3.org/2000/svg" xmlns:xlink="http://www.w3.org/1999/xlink" x="0px" y="0px"
	 viewBox="0 0 600 450" style="enable-background:new 0 0 600 450;" xml:space="preserve">
<style type="text/css">
	.st0{fill:#A74241;}
</style>
<path class="st0" d="M323.4,211.1l-2.8-5.7c-0.9,0-1.9,0.9-1.9,0.9c-0.9-0.9-0.9-2.8-0.9-2.8c-1.9,0-1.9-0.9-2.8-1.9h-0.9
	c-1.9,0-3.8-0.9-4.7-2.8h-0.9c-1.9,0-3.8,0-4.7-1.9c0,0-0.9-0.9-1.9-0.9c-1.9,0-4.7,0.9-6.6,0.9c-1.9,0-3.8,0.9-4.7,2.8
	c-0.9,0-0.9-0.9-1.9-0.9c-1.9,1.9-3.8,2.8-5.7,3.8c-1.9,0.9-3.8,1.9-3.8,4.7c-0.9,0-0.9-0.9-1.9-0.9l-1.9,1.9
	c-0.9,1.9-1.9,3.8-3.8,5.7c-0.9,1.9-1.9,4.7-1.9,6.6s0.9,3.8,0.9,4.7v1.9h1.9c0,0.9-0.9,1.9-0.9,2.8c0.9,2.8,2.8,4.7,2.8,7.6
	c0,2.8,1.9,2.8,2.8,2.8c0.9,1.9,1.9,2.8,2.8,4.7c1.9,0.9,2.8,1.9,4.7,2.8c0.9,0.9,3.8,1.9,3.8,0.9c2.8-1.9,2.8,0.9,2.8,0.9h15.2v0.9
	c0-0.9,0.9-0.9,1.9-1.9c0.9,2.8,1.9,0,2.8,0v-2.8l2.8,2.8c0-3.8,1.9-5.7,4.7-6.6l0.9-0.9c0-1.9,1.9-2.8,2.8-2.8c0-0.9,0-1.9-0.9-2.8
	l1.9,1.9c0.9-2.8,0.9-4.7,0.9-6.6s0.9-3.8,1.9-6.6v-6.6c0-1.9-0.9-4.7-0.9-6.6C325.3,212.1,325.3,211.1,323.4,211.1z M350,302.2
	v-4.7C348.1,300.4,348.1,300.4,350,302.2z"/>
<path class="st0" d="M446.8,248.1c2.8-5.7,1.9-11.4,2.8-15.2c0-6.6-0.9-13.3-1.9-19c0-1.9-0.9-3.8,0-5.7v-1.9
	c-1.9-6.6-4.7-12.3-6.6-19c-0.9-4.7-4.7-9.5-3.8-15.2c0,0,0-0.9-0.9-1.9c-3.8-6.6-5.7-11.4-6.6-14.2c-1.9-2.8-3.8-6.6-4.7-9.5
	c-1.9-1.9-1.9-3.8-3.8-4.7c-1.9-2.8-4.7-5.7-6.6-8.5c-0.9-0.9-0.9-2.8-0.9-2.8l-14.2-11.4c-2.8-0.9-4.7-2.8-4.7-4.7
	c-2.8-1.9-4.7-3.8-7.6-5.7c-4.7-1.9-9.5-3.8-11.4-6.6c-3.8-2.8-7.6-4.7-11.4-7.6c-2.8-1.9-5.7-1.9-7.6-1.9c-2.8-2.8-5.7-4.7-9.5-6.6
	c-5.7-2.8-12.3-4.7-19-6.6c-2.8-0.9-7.6-1.9-10.4-2.8l-19.9-0.9h-13.3c-0.9,0-1.9,0.9-3.8,0.9c-6.6-0.9-13.3,0.9-19.9,2.8
	c-8.5,1.9-16.1,6.6-24.7,9.5c-4.7,3.8-7.6,5.7-12.3,8.5c-2.8,1.9-7.6,4.7-11.4,6.6c-0.9,0.9-4.7,2.8-5.7,5.7
	c-3.8,1.9-4.7,3.8-8.5,6.6c-2.8,2.8-5.7,6.6-10.4,9.5c-1.9,2.8-3.8,6.6-6.6,9.5c-2.8,1.9-2.8,4.7-4.7,7.6
	c-4.7,6.6-7.6,14.2-11.4,20.9c0,0.9-0.9,1.9-0.9,2.8c1.9,2.8,0,4.7-0.9,6.6c-0.9,1.9-1.9,4.7-1.9,6.6c-1.9,0-3.8,0-3.8,0.9
	c0,3.8,0,6.6-1.9,8.5v1.9c0.9,1.9,0,3.8-0.9,5.7c-0.9,0.9-0.9,1.9-0.9,2.8c-0.9,3.8-0.9,7.6-1.9,11.4c0,3.8-0.9,8.5-0.9,12.3v5.7
	c0.9,8.5,2.8,16.1,2.8,24.7c0,3.8,0.9,6.6,0.9,10.4c0.9,4.7,0.9,8.5,1.9,13.3c-0.9,2.8,0.9,4.7,2.8,4.7h1.9c0.9,1.9,1.9,4.7,2.8,5.7
	c0,1.9-0.9,2.8-0.9,2.8c0.9,1.9,0.9,4.7,2.8,4.7c2.8,0,4.7,2.8,5.7,4.7c1.9,2.8,4.7,7.6,4.7,10.4c0.9,5.7,2.8,8.5,7.6,11.4
	c0,0,1.9,0.9,1.9,2.8c3.8,6.6,8.5,12.3,15.2,16.1c6.6,4.7,10.4,9.5,16.1,11.4l2.8,2.8c0.9,0.9,0.9,0.9,1.9,0.9
	c2.8,0,4.7,0.9,6.6,2.8c8.5,4.7,18,7.6,26.6,11.4c0.9,0.9,2.8,0.9,3.8,0c0.9-0.9,1.9-0.9,2.8,0c4.7,1.9,10.4,1.9,15.2,2.8
	c4.7,0.9,9.5,0,14.2,0.9h7.6c4.7,0,9.5,0.9,13.3,0.9c0.9,0,0.9,0,1.9-0.9c3.8,0,6.6-1.9,11.4-1.9c2.8,0,6.6,0,10.4-0.9l11.4-2.8
	c1.9-0.9,2.8-2.8,5.7-0.9c0,0,0.9,0,0.9-0.9c1.9-2.8,4.7-3.8,8.5-3.8c4.7-0.9,7.6-4.7,12.3-5.7c1.9-0.9,3.8-2.8,5.7-3.8
	c0.9-0.9,1.9-1.9,2.8-1.9c2.8-0.9,4.7-1.9,7.6-4.7c2.8-2.8,5.7-4.7,8.5-6.6l2.8-2.8c1.9-1.9,2.8-3.8,4.7-4.7l2.8-2.8
	c1.9-2.8,4.7-5.7,6.6-8.5c2.8-3.8,7.6-6.6,9.5-11.4c0.9-1.9,1.9-3.8,2.8-4.7c0.9-1.9,2.8-4.7,3.8-6.6c0.9-2.8,2.8-4.7,4.7-7.6
	c0.9-1.9,1.9-2.8,1.9-4.7c1.9-4.7,3.8-8.5,4.7-13.3c0.9-3.8,2.8-8.5,2.8-12.3c0-2.8,1.9-6.6,0-10.4V248.1z M155.4,209.2
	c0-4.7,0.9-9.5,1.9-14.2C157.3,199.7,157.3,204.5,155.4,209.2z M206.6,119.1C207.6,118.1,207.6,119.1,206.6,119.1z M221.8,107.7
	c1.9-3.8,3.8-5.7,6.6-7.6c0.9,0,0.9-0.9,1.9-0.9c0.9,0,2.8-1.9,5.7-1.9c1.9,0,3.8-0.9,1.9-0.9c1.9,0,2.8-0.9,3.8,0
	c0,0,0.9,0.9,0,1.9c-0.9,0-2.8,1.9-3.8,1.9c-2.8,0-4.7,1.9-7.6,3.8c-1.9,0-3.8,0-4.7,0.9c-1.9,1.9-2.8,3.8-5.7,4.7
	C219.9,109.6,221.8,107.7,221.8,107.7z M217.1,110.5C216.1,111.5,216.1,110.5,217.1,110.5z M209.5,116.2c1.9-1.9,1.9-2.8,2.8-2.8
	c1.9,0,1.9-1.9,1.9-1.9h0.9v0.9c-0.9,0.9-2.8,0.9-2.8,0.9C211.4,114.3,211.4,116.2,209.5,116.2z M248.4,360.1v-0.9l1.9,0.9H248.4z
	 M263.6,364.9c0.9-1.9,1.9-3.8,3.8-1.9C266.4,363,264.5,363,263.6,364.9z M313.9,361.1c1.9,0.9,2.8,1.9,4.7,2.8
	C316.7,365.8,315.8,363,313.9,361.1z M382.2,205.4c-1.9,0.9-0.9,1.9,0,2.8c0,0-0.9,0-0.9,0.9l0.9,0.9c-0.9,1.9,0,3.8,0,5.7v14.2
	c0,0.9-0.9,0.9-0.9,1.9c-0.9,1.9,0,2.8,0,4.7c0,0.9-0.9,2.8,0.9,3.8v0.9c-1.9,1.9-0.9,3.8-0.9,6.6v8.5c0,0.9,0.9,0.9,0.9,1.9
	c-0.9,1.9-0.9,6.6,0,7.6c0,0-0.9,0-0.9,0.9c-0.9,1.9-0.9,4.7-0.9,6.6s0.9,3.8-1.9,3.8c-0.9,0-0.9,0.9-1.9,1.9c0.9,0,0.9,0.9,1.9,0.9
	l0.9,0.9c0,1.9-0.9,3.8-0.9,4.7v1.9c-0.9,0-0.9-0.9-1.9-0.9c-0.9,2.8-4.7,2.8-3.8,6.6h-0.9v-2.8h-1.9v3.8l-0.9,0.9
	c-0.9,0.9-1.9,1.9-3.8,2.8c-0.9,0.9-2.8,1.9-3.8,2.8l0.9,0.9c-3.8,1.9-6.6,2.8-10.4,4.7v-1.9c-1.9,2.8-4.7,2.8-7.6,2.8
	c-3.8,0-6.6,0.9-10.4,0.9H331V306c-0.9,0.9-1.9,1.9-1.9,2.8c-2.8,0-4.7,0-7.6,0.9V307c-0.9,0-2.8-0.9-3.8-0.9
	c-0.9,0.9-1.9,1.9-2.8,3.8c-0.9,0-1.9-0.9-2.8-0.9h-2.8c-1.9,0.9-1.9,0.9-1.9-0.9c-0.9,2.8-2.8,2.8-4.7,1.9h-1.9h-10.4
	c-1.9,0-3.8,0.9-5.7,0c-1.9-0.9-1.9,0-2.8,0c-0.9,0-0.9-0.9-1.9-0.9c-1.9,0.9-3.8,1.9-5.7,0c-0.9,0-1.9,0.9-3.8,0.9h-0.9
	c0-0.9,0-0.9-0.9-1.9c-2.8,1.9-6.6,1.9-9.5,0c-0.9,0.9-2.8,1.9-3.8,0h-1.9c-0.9,0-1.9,0-2.8-0.9c-2.8-0.9-4.7-1.9-7.6-2.8v-1.9
	c-1.9,0.9-2.8,0.9-3.8-0.9c-0.9-0.9-1.9-1.9-3.8-2.8c-2.8-0.9-2.8-2.8-4.7-3.8c-2.8-1.9-3.8-5.7-6.6-8.5l-2.8-2.8
	c-0.9-0.9-1.9-1.9-1.9-3.8v-0.9c0-0.9,0-0.9,0.9-1.9h-3.8c2.8-2.8,0-4.7,0-6.6c1.9-1.9-0.9-4.7,0-6.6c0.9-2.8,0.9-5.7,0.9-8.5
	c0,0,0-0.9,0.9-0.9c-0.9,0-0.9,0-1.9-0.9h0.9v-5.7h2.8c-0.9-1.9-1.9-2.8-2.8-4.7l0.9-0.9c0,0,0.9,0.9,1.9,0.9v-3.8
	c-0.9,0.9-1.9,0.9-2.8,1.9c0,0,0-0.9-0.9-0.9c0.9-0.9,1.9-1.9,3.8-2.8h-2.8c0-0.9,1.9-3.8,0-4.7c0-2.8,0.9-5.7,0.9-7.6h1.9
	c-2.8-1.9-3.8-3.8-3.8-6.6c0-1.9,0.9-4.7,0.9-6.6v-0.9c-1.9-1.9,0-4.7-0.9-6.6c0-0.9,0-1.9-0.9-2.8l1.9-1.9h-1.9
	c0-0.9,0.9-1.9,0.9-2.8h1.9c0.9,0,0.9,0,1.9,0.9v-2.8H218v-3.8c-0.9,0.9-1.9,1.9-2.8,1.9c-0.9-2.8-0.9-4.7,0-5.7
	c0-1.9,0.9-3.8,0.9-5.7c0-1.9,0-2.8,1.9-3.8c0.9-0.9,0.9-1.9-0.9-2.8c1.9-0.9,1.9-1.9,0.9-2.8c1.9-2.8,0.9-5.7,1.9-7.6l0.9,0.9
	c0.9-0.9,1.9-2.8,2.8-3.8c0.9-1.9,1.9-3.8,2.8-4.7s1.9-1.9,3.8-2.8h0.9c0-0.9,0-1.9,1.9-1.9c0.9-1.9,1.9-2.8,2.8-3.8
	c2.8,0,4.7-0.9,6.6-1.9c0.9,0,1.9-0.9,2.8-0.9c1.9,0,3.8,0,4.7-1.9c0.9-0.9,1.9,0,2.8-0.9c0,0.9,0,1.9,0.9,2.8
	c0.9-0.9,0.9-1.9,1.9-2.8c0.9,1.9,2.8-1.9,3.8,0c0.9-0.9,2.8-1.9,3.8,0h0.9c1.9-0.9,3.8-0.9,5.7,0c0-0.9,0.9-0.9,0.9-1.9
	c1.9,0,3.8,0,5.7,0.9c-0.9,0-0.9,0-2.8,0.9c0,0.9,0.9,0.9,0.9,1.9c0.9,0,0.9-0.9,1.9-0.9s0.9-0.9,1.9-1.9v3.8h2.8
	c-0.9-0.9-0.9-1.9-0.9-3.8h17.1c0.9,0,0.9,0,1.9-0.9h0.9c2.8,1.9,4.7,0.9,7.6,0.9c1.9,0,3.8,0.9,5.7-0.9c0,0,1.9,0.9,2.8,0.9v2.8
	h0.9V140c2.8,0.9,4.7,0.9,7.6,1.9c0-0.9,0-2.8,1.9-0.9c1.9,0.9,4.7,0,6.6,0h3.8v4.7c0.9-0.9,0.9-0.9,1.9-3.8h2.8
	c0.9,0,2.8,0,2.8,0.9c1.9,1.9,3.8,0.9,5.7,0.9h0.9v2.8c0.9,0,1.9-0.9,1.9-0.9c2.8,0,4.7,0.9,6.6,2.8c1.9,0.9,2.8,2.8,4.7,2.8
	c0.9,0,1.9,1.9,2.8,2.8c0.9,0.9,1.9,0.9,1.9,1.9v0.9h1.9c0.9,0.9,1.9,2.8,2.8,3.8c1.9,1.9,2.8,3.8,2.8,6.6l1.9,1.9
	c-0.9,2.8,1.9,3.8,1.9,5.7l0.9,0.9c-1.9,1.9,0.9,3.8,0,5.7c0,0.9,0.9,1.9,0.9,1.9l-2.8,2.8c0.9,0,1.9,0,1.9,0.9
	c0.9,0.9,1.9,0.9,0.9,2.8c-0.9,1.9,0,4.7,0,7.6v5.7C383.2,203.5,383.2,204.5,382.2,205.4z"/>
<path class="st0" d="M291.1,186.5c0.9,0,0.9-0.9,1.9-0.9c-0.9-0.9-0.9-1.9-1.9-1.9h-0.9c0,0.9-0.9,0.9-0.9,1.9
	C290.2,185.5,291.1,186.5,291.1,186.5z"/>
<path class="st0" d="M367,183.6c-0.9,0,0-2.8,0-3.8c0.9-0.9,0.9-0.9,0-1.9c-1.9-0.9-1.9-1.9-0.9-3.8c0-0.9,0.9-0.9,1.9-1.9
	c0,0-0.9-0.9-0.9-1.9l0.9-0.9c-1.9,0-2.8-0.9-2.8-0.9c-1.9,0-2.8,0.9-4.7,0.9c0-0.9-0.9-2.8-0.9-3.8c-0.9-0.9-1.9-3.8-3.8-2.8
	c0,0-0.9-0.9-0.9-1.9v-1.9l-2.8,2.8c-1.9-0.9-2.8-1.9-4.7-2.8h-1.9c-0.9,0.9-2.8,0-3.8,0c-0.9,0-1.9-0.9-2.8-0.9h-1.9
	c-0.9-1.9-1.9-0.9-2.8-0.9c-0.9,0-1.9-0.9-2.8-0.9c-0.9,0-2.8-0.9-3.8-0.9c-1.9,0-4.7,0.9-5.7,0c-1.9-1.9-3.8,0.9-5.7,0
	s-3.8,0.9-5.7,0h-10.4c-1.9,0.9-3.8,0.9-4.7,0c-0.9,0-1.9-0.9-2.8,0c-1.9,0.9-3.8,0-5.7,0c-2.8,0-5.7-1.9-8.5,0h-1.9
	c-1.9-0.9-2.8-0.9-4.7,0h-7.6c-1.9,0.9-3.8,1.9-5.7,1.9h-0.9c-0.9-0.9-0.9-0.9-1.9,0h-0.9c-2.8,0-4.7,0-6.6,1.9
	c-0.9,0-1.9-0.9-2.8-0.9v0.9l0.9,0.9c-0.9,0.9-2.8,0.9-3.8,2.8c0,0.9-0.9,0.9-1.9,0.9h-0.9c-0.9,1.9-1.9,3.8-2.8,4.7
	c0,0.9-0.9,0.9-0.9,1.9c-0.9,1.9-1.9,4.7-1.9,6.6c-0.9,1.9-1.9,3.8-1.9,6.6c0,0.9,0,1.9-0.9,3.8v0.9c1.9,1.9,0,3.8-0.9,4.7v3.8
	c0,0.9,0.9,1.9,0,1.9c-0.9,1.9,0.9,3.8-0.9,5.7v9.5c0,1.9-0.9,3.8,0,6.6c0.9,1.9,0,3.8-0.9,5.7c0,0.9-0.9,1.9,0.9,2.8v8.5
	c0,1.9,0,2.8,0.9,4.7c0,1.9-1.9,3.8,0,6.6c0,1.9-0.9,3.8-0.9,4.7c0,1.9,1.9,2.8,0.9,4.7c0,1.9,0.9,3.8,1.9,5.7
	c-1.9,0.9-1.9,2.8,0,3.8c0,0.9-0.9,1.9-0.9,2.8c1.9,1.9,2.8,3.8,2.8,6.6c0,0,0,0.9,0.9,0.9c0.9,0.9,2.8,1.9,3.8,3.8
	c0.9,2.8,3.8,2.8,5.7,4.7c0.9,0.9,0.9,1.9,1.9,1.9c1.9,0.9,3.8,0.9,5.7,1.9c1.9,0,2.8,0,4.7,0.9c0.9,0.9,1.9,0.9,1.9,1.9
	c0.9,0,0.9-0.9,1.9-1.9v2.8h2.8c0.9-0.9,1.9-0.9,2.8,0c0.9,0.9,1.9,0.9,2.8,0h3.8c1.9-1.9,2.8-0.9,3.8,1.9c0.9,0,2.8-0.9,3.8-0.9
	c1.9-0.9,2.8-0.9,4.7-0.9c1.9,0.9,3.8,0.9,5.7,0.9h0.9c0.9,0,1.9,0,3.8-0.9h1.9c1.9,0,4.7-0.9,6.6-0.9c2.8,0.9,4.7,0.9,7.6,0.9
	c0.9,0,2.8,0,3.8,0.9h1.9c0.9,0,1.9-0.9,2.8,0c1.9,0.9,2.8,0,4.7-0.9h0.9c0,0.9,0,0.9,0.9,1.9v-0.9c0.9,0,2.8,0.9,3.8,0.9
	c0,0,0-0.9,0.9-0.9c1.9,0,3.8,0,6.6,0.9h0.9v-1.9c0.9,0,1.9-0.9,2.8,0c1.9,0,2.8,0.9,2.8-1.9c1.9,0,4.7-0.9,6.6-0.9
	c0.9,0,1.9-0.9,2.8-2.8c1.9-1.9,2.8-4.7,3.8-5.7c1.9-1.9,3.8-2.8,4.7-5.7c2.8,0,1.9-1.9,2.8-3.8c0.9-1.9,1.9-2.8,2.8-3.8H367
	c0.9,0,0.9-0.9,1.9-0.9H368v-10.4c0-2.8,0.9-4.7,0.9-7.6c0-1.9-1.9-3.8,0-4.7v-0.9v-6.6v-3.8c0-1.9-0.9-4.7,0-6.6
	c0.9-3.8,0-7.6,0-11.4h0.9v-1.9V213c0-2.8-0.9-5.7-0.9-8.5c0-0.9,0.9-1.9,0-2.8c-0.9-1.9,0-2.8,0.9-4.7v-5.7
	C368,186.5,368,184.6,367,183.6z M342.4,229.2c-0.9,0.9,0,1.9,0,2.8c0,1.9,0,2.8-0.9,3.8c-0.9,0.9-0.9,1.9-0.9,2.8
	c0,1.9-0.9,3.8-0.9,4.7c-0.9,2.8-1.9,4.7-2.8,7.6h-0.9c-2.8,0.9-3.8,3.8-4.7,5.7c0,0-0.9,0.9-1.9,0.9v1.9c-3.8,0.9-9.5,4.7-9.5,5.7
	c-4.7,0.9-10.4,0.9-15.2,1.9h-4.7c0,0-0.9,0-0.9-0.9H293c-2.8,0-4.7-0.9-7.6-1.9c-0.9,0-1.9-0.9-2.8-0.9c-0.9,0-1.9,0.9-1.9-1.9
	l-0.9-0.9c-0.9-0.9-1.9-0.9-2.8-1.9c0,0-0.9,0-1.9-0.9c-0.9-1.9-2.8-2.8-4.7-2.8c-0.9-0.9-2.8-1.9-3.8-3.8c-1.9-1.9,0-4.7,0-6.6
	c-1.9-0.9-3.8-0.9-4.7-1.9c-0.9-1.9-1.9-1.9-2.8-2.8c0-0.9,0.9-0.9,0.9-1.9c-0.9-2.8-2.8-4.7-3.8-7.6v-0.9c0-0.9,0.9-2.8-0.9-2.8
	v-0.9c0,0,0.9-0.9,1.9-0.9c-1.9-1.9,0.9-4.7,0-6.6c0-1.9,1.9-3.8,2.8-5.7c0.9-2.8,1.9-5.7,2.8-7.6c1.9-3.8,4.7-1.9,6.6-2.8
	c-0.9-0.9-0.9-1.9-1.9-2.8c0,0,0-0.9-0.9-0.9c0,0.9,0,0.9-0.9,1.9h-0.9c0-0.9,0.9-1.9,0.9-2.8c0.9-1.9,1.9-2.8,3.8-4.7
	c1.9-1.9,3.8-3.8,6.6-2.8c0.9,0,0.9,0,1.9-0.9H274v-0.9c1.9-0.9,2.8-0.9,4.7-1.9c1.9,0,3.8,0,4.7-1.9c0.9-1.9,3.8-1.9,5.7-2.8
	c0.9,0,0.9,0.9,1.9,0.9c0.9-2.8,2.8-2.8,5.7-1.9c0,0,0.9,0.9,1.9,0s1.9-1.9,2.8-1.9c0.9,0,1.9,0.9,2.8,0.9c0,0,0.9-0.9,1.9-0.9v0.9
	c-0.9,0.9-1.9,1.9-1.9,2.8c0,0,0,0.9,0.9,0.9c0.9-2.8,3.8,1.9,3.8-0.9h2.8c0.9,0,2.8,0,3.8,0.9c0.9,0,1.9,0.9,2.8,0.9
	c1.9,1.9,2.8,1.9,4.7,0.9c0,0.9,0,1.9,0.9,3.8c0.9,0,1.9-0.9,2.8-0.9c0,1.9,0,2.8,2.8,2.8c0,0,0.9,0.9,0.9,1.9
	c0,1.9,0.9,3.8,2.8,4.7c0,0,0,0.9,0.9,1.9c1.9,0,2.8,0,2.8,1.9c0,1.9,1.9,2.8,2.8,4.7v0.9c0,1.9,0.9,2.8,1.9,3.8
	c0.9,1.9,0.9,2.8,1.9,4.7c0.9,1.9,0.9,4.7,1.9,6.6C343.3,225.4,344.3,227.3,342.4,229.2z M348.1,181.7c-0.9,2.8-2.8,4.7-4.7,4.7
	c-1.9,0.9-4.7,0.9-6.6,0c-0.9,0-0.9-1.9-1.9-3.8c-0.9,0-0.9,0.9-1.9,1.9h-0.9c0-1.9,0.9-3.8,0.9-4.7c0,0-1.9,0-1.9-0.9
	c0-1.9-0.9-3.8,0-5.7c0.9-1.9,2.8-3.8,4.7-3.8v3.8c-0.9,0-1.9-0.9-2.8-0.9c0,1.9,0,1.9,3.8,4.7v-2.8c2.8,0.9,3.8-1.9,4.7-2.8v-2.8
	c1.9-0.9,3.8,0,5.7,2.8c0.9,0.9,1.9,1.9,2.8,3.8c0,0,0.9,0,0,0.9C349,177.9,348.1,179.8,348.1,181.7z M232.3,156.1
	c1.9-1.9,0-2.8-1.9-2.8v4.7c0,0,0.9,0.9,1.9,0.9V156.1z M252.2,149.4c0-0.9,0.9-2.8,0.9-3.8c-2.8-1.9-1.9,0.9-2.8,1.9
	C250.3,147.5,252.2,149.4,252.2,149.4z"/>
<path class="st0" d="M265.5,251C266.4,251,266.4,251,265.5,251c0.9-0.9,1.9-1.9,1.9-2.8C265.5,248.1,264.5,249.1,265.5,251z
	 M258.8,146.6v-4.7c0,0-0.9,0-0.9,0.9v1.9C257.9,146.6,257.9,146.6,258.8,146.6z M240.8,151.3c0.9,0,0.9,0,1.9-0.9
	c-1.9,0-3.8-0.9-4.7-1.9c-0.9,1.9-1.9,3.8-1.9,5.7C239.9,155.1,239.9,155.1,240.8,151.3z"/>
</svg>
